<svg xmlns="http://www.w3.org/2000/svg" viewBox="0 0 24 24">
  <rect width="24" height="24" rx="3" fill="#F7DF1E"/>
  <path fill="#000" d="M10.7 17.7c0 1.8-1.1 2.7-2.7 2.7c-1.2 0-2.1-.4-2.7-1.2l1.3-1.1c.3.4.7.7 1.3.7c.6 0 1-.3 1-.9v-6.2h1.8v6zM18.7 20.2c-.6.4-1.4.7-2.3.7c-1.8 0-3.1-1-3.1-2.7c0-1.3.7-2.2 2.2-2.6l1.5-.4c.7-.2 1-.4 1-.9c0-.6-.5-.9-1.2-.9c-.8 0-1.5.3-2.1.8l-1-1.2c.8-.8 1.9-1.2 3.1-1.2c1.9 0 3.2 1 3.2 2.7v5.1h-1.3l-.1-1.1zm.1-2.6v-1.1l-1.4.5c-.7.2-1 .6-1 .9c0 .6.5 1 .1 1c.9 0 1.8-.6 2.3-1.3z"/>
</svg>


